<?xml version="1.0" encoding="UTF-8"?>
<!DOCTYPE svg PUBLIC "-//W3C//DTD SVG 1.1//EN" "http://www.w3.org/Graphics/SVG/1.1/DTD/svg11.dtd">
<svg xmlns="http://www.w3.org/2000/svg" version="1.1" width="90px" height="86px" style="shape-rendering:geometricPrecision; text-rendering:geometricPrecision; image-rendering:optimizeQuality; fill-rule:evenodd; clip-rule:evenodd" xmlns:xlink="http://www.w3.org/1999/xlink">
<g><path style="opacity:0.963" fill="#020202" d="M 34.5,-0.5 C 41.1667,-0.5 47.8333,-0.5 54.5,-0.5C 72.7332,4.06641 84.3998,15.3997 89.5,33.5C 89.5,39.5 89.5,45.5 89.5,51.5C 84.3998,69.6003 72.7332,80.9336 54.5,85.5C 47.8333,85.5 41.1667,85.5 34.5,85.5C 16.2668,80.9336 4.60017,69.6003 -0.5,51.5C -0.5,45.5 -0.5,39.5 -0.5,33.5C 4.60017,15.3997 16.2668,4.06641 34.5,-0.5 Z"/></g>
<g><path style="opacity:1" fill="#f8f8f8" d="M 48.5,11.5 C 50.342,14.4392 53.0087,16.4392 56.5,17.5C 57.4803,16.0186 58.647,14.6853 60,13.5C 59.8909,17.8277 58.5575,21.8277 56,25.5C 49.2235,26.8111 42.3901,26.8111 35.5,25.5C 32.9641,22.8162 31.9641,19.8162 32.5,16.5C 33.8333,17.1667 35.1667,17.8333 36.5,18.5C 41.2838,17.1889 45.2838,14.8556 48.5,11.5 Z"/></g>
<g><path style="opacity:1" fill="#fbfbfb" d="M 33.5,27.5 C 40.175,27.3337 46.8417,27.5004 53.5,28C 55.4386,28.9078 56.4386,30.4078 56.5,32.5C 49.1365,32.1694 41.8032,32.5027 34.5,33.5C 30.5671,37.1448 25.9004,38.8115 20.5,38.5C 20.178,36.2776 20.8446,34.4443 22.5,33C 26.0738,30.6128 29.7405,28.7795 33.5,27.5 Z"/></g>
<g><path style="opacity:1" fill="#000000" d="M 30.5,31.5 C 31.7733,32.0768 31.7733,32.7435 30.5,33.5C 29.549,34.3256 28.549,34.4922 27.5,34C 28.5707,33.1482 29.5707,32.3149 30.5,31.5 Z"/></g>
<g><path style="opacity:1" fill="#fefefe" d="M 35.5,34.5 C 42.8409,34.3337 50.1742,34.5003 57.5,35C 70.0306,43.7946 72.864,54.9613 66,68.5C 65.6667,68.1667 65.3333,67.8333 65,67.5C 64.6905,68.7659 64.1905,69.9326 63.5,71C 51.9341,73.9611 40.2674,74.2944 28.5,72C 26.6494,71.1628 24.8161,70.3295 23,69.5C 19.8401,62.4825 19.6734,55.3159 22.5,48C 26.3694,42.9656 30.7027,38.4656 35.5,34.5 Z"/></g>
</svg>
