<?xml version="1.0" encoding="UTF-8"?>
<!DOCTYPE svg PUBLIC "-//W3C//DTD SVG 1.1//EN" "http://www.w3.org/Graphics/SVG/1.1/DTD/svg11.dtd">
<svg xmlns="http://www.w3.org/2000/svg" version="1.1" width="128px" height="128px" style="shape-rendering:geometricPrecision; text-rendering:geometricPrecision; image-rendering:optimizeQuality; fill-rule:evenodd; clip-rule:evenodd" xmlns:xlink="http://www.w3.org/1999/xlink">
<g><path style="opacity:0.633" fill="white" d="M 97.5,99.5 C 99.8977,96.4288 101.898,93.0954 103.5,89.5C 106.362,86.443 108.195,82.7764 109,78.5C 111.271,67.7036 110.937,57.0369 108,46.5C 106.311,42.4401 104.144,38.7734 101.5,35.5C 96.331,28.3347 89.6643,23.0014 81.5,19.5C 80.609,18.8902 79.609,18.5569 78.5,18.5C 75.9333,17.525 73.2666,16.8583 70.5,16.5C 64.1082,16.2487 57.7748,16.582 51.5,17.5C 32.0822,22.9185 20.7488,35.5852 17.5,55.5C 17.5,56.5 17.5,57.5 17.5,58.5C 16.71,59.6085 16.21,60.9419 16,62.5C 15.6667,61.5 15.3333,60.5 15,59.5C 14.2282,64.9042 14.5615,70.2375 16,75.5C 16.4169,76.756 17.2502,77.4226 18.5,77.5C 18.6924,81.1024 20.0257,84.1024 22.5,86.5C 24.9478,95.2798 30.2812,101.613 38.5,105.5C 38.6107,106.117 38.944,106.617 39.5,107C 42.8333,108 46.1667,109 49.5,110C 58.5,110.667 67.5,110.667 76.5,110C 79.5945,109.286 82.5945,108.286 85.5,107C 89.0709,104.579 92.7375,102.413 96.5,100.5C 90.1128,107.529 82.1128,111.696 72.5,113C 49.2691,116.377 31.4358,108.21 19,88.5C 7.50399,61.9503 13.004,39.7837 35.5,22C 64.4411,7.36057 88.2744,13.1939 107,39.5C 114.886,57.2162 114.219,74.5495 105,91.5C 103,94.6657 100.5,97.3324 97.5,99.5 Z"/></g>
<g><path style="opacity:1" fill="white" d="M 51.5,17.5 C 46.8053,20.4775 41.8053,23.1442 36.5,25.5C 34.6593,30.5978 31.826,34.9312 28,38.5C 28.1399,43.5274 25.9732,47.194 21.5,49.5C 20.914,49.2907 20.414,48.9574 20,48.5C 19.3024,51.0037 18.4691,53.337 17.5,55.5C 20.7488,35.5852 32.0822,22.9185 51.5,17.5 Z"/></g>
<g><path style="opacity:1" fill="white" d="M 79.5,23.5 C 81.1496,26.2015 83.3163,28.5348 86,30.5C 86.9653,28.7397 88.132,28.4063 89.5,29.5C 89.3775,32.7108 89.3775,35.8775 89.5,39C 93.998,43.109 96.3313,48.2756 96.5,54.5C 94.8762,54.3601 93.7096,55.0267 93,56.5C 92.2114,60.0915 92.3781,63.5915 93.5,67C 90.1039,68.71 88.6039,71.5433 89,75.5C 88.6174,74.944 88.1174,74.6107 87.5,74.5C 87.5997,71.8915 86.9331,69.5582 85.5,67.5C 86.5,67.5 87.5,67.5 88.5,67.5C 88.2601,64.4212 88.5934,61.4212 89.5,58.5C 88.8333,58.1667 88.1667,57.8333 87.5,57.5C 88.8333,56.1667 88.8333,54.8333 87.5,53.5C 88.6869,53.4464 90.0202,53.1131 91.5,52.5C 90.0752,46.9778 88.0752,41.6445 85.5,36.5C 83.6471,35.2404 81.8138,35.2404 80,36.5C 79.5034,38.8098 79.3367,41.1432 79.5,43.5C 78.5,43.5 77.5,43.5 76.5,43.5C 78.2185,41.0738 78.7185,38.4071 78,35.5C 76.5867,37.4136 74.7534,38.7469 72.5,39.5C 71.4777,39.1445 70.811,38.4778 70.5,37.5C 72.0739,35.8984 72.7406,33.8984 72.5,31.5C 75.243,30.6118 77.9096,29.4451 80.5,28C 78.0751,27.7073 76.2418,26.5407 75,24.5C 74.0853,25.3279 73.4186,26.3279 73,27.5C 70.1869,25.8495 67.6869,23.8495 65.5,21.5C 64.3044,21.8457 64.3044,22.3457 65.5,23C 62.4245,23.3457 59.4245,24.0124 56.5,25C 55.0745,26.7141 55.4078,28.0475 57.5,29C 56.2062,31.087 55.0395,33.2537 54,35.5C 53.5172,34.552 53.3505,33.552 53.5,32.5C 51.7839,32.3713 50.1172,32.038 48.5,31.5C 49.9418,30.1805 50.6085,28.5138 50.5,26.5C 51.552,26.6495 52.552,26.4828 53.5,26C 54.6764,22.9212 56.6764,21.7546 59.5,22.5C 66.5889,18.167 73.2556,18.5003 79.5,23.5 Z"/></g>
<g><path style="opacity:1" fill="white" d="M 70.5,16.5 C 65.6511,17.1665 60.6511,17.8332 55.5,18.5C 46.9097,23.9263 39.0764,30.2597 32,37.5C 30.4379,39.9573 29.4379,42.624 29,45.5C 26.8515,46.9774 25.5182,48.9774 25,51.5C 21.816,52.2164 20.316,54.2164 20.5,57.5C 21.4285,62.473 22.0951,67.473 22.5,72.5C 21.5,72.5 20.5,72.5 19.5,72.5C 19.5014,77.6683 21.5014,81.835 25.5,85C 28.2306,88.9628 30.5639,93.1295 32.5,97.5C 30.9826,97.4894 29.8159,96.8228 29,95.5C 26.9701,92.3185 24.8035,89.3185 22.5,86.5C 20.0257,84.1024 18.6924,81.1024 18.5,77.5C 17.6803,71.2026 17.347,64.8692 17.5,58.5C 17.5,57.5 17.5,56.5 17.5,55.5C 18.4691,53.337 19.3024,51.0037 20,48.5C 20.414,48.9574 20.914,49.2907 21.5,49.5C 25.9732,47.194 28.1399,43.5274 28,38.5C 31.826,34.9312 34.6593,30.5978 36.5,25.5C 41.8053,23.1442 46.8053,20.4775 51.5,17.5C 57.7748,16.582 64.1082,16.2487 70.5,16.5 Z"/></g>
<g><path style="opacity:1" fill="white" d="M 78.5,18.5 C 79.609,18.5569 80.609,18.8902 81.5,19.5C 82.4779,22.3248 84.4779,23.6581 87.5,23.5C 87.5,24.8333 87.5,26.1667 87.5,27.5C 88.675,27.281 89.675,27.6143 90.5,28.5C 92.5108,31.525 93.8441,34.8583 94.5,38.5C 96.3031,39.1368 97.6364,40.3035 98.5,42C 95.808,46.2208 96.1413,50.2208 99.5,54C 98.8095,55.0674 98.3095,56.2341 98,57.5C 97.2904,56.0267 96.1238,55.3601 94.5,55.5C 94.804,58.5219 95.304,61.5219 96,64.5C 100.826,65.7304 102.326,63.8971 100.5,59C 100.63,57.9412 101.13,57.1079 102,56.5C 104.168,62.6837 104.835,69.017 104,75.5C 102.117,76.6526 101.284,78.3193 101.5,80.5C 100.5,80.5 99.5,80.5 98.5,80.5C 98.6567,79.1266 98.49,77.7932 98,76.5C 96.4113,80.0309 95.2446,83.6976 94.5,87.5C 93.6114,89.007 92.6114,90.3403 91.5,91.5C 88.8737,92.8622 86.5404,94.6955 84.5,97C 82.5594,97.7429 80.7261,97.5762 79,96.5C 76.3392,98.1577 73.6725,99.8244 71,101.5C 69.7212,99.0629 68.2212,98.5629 66.5,100C 62.106,100.303 57.7727,100.97 53.5,102C 51.5016,106.162 48.8349,106.662 45.5,103.5C 48.8032,102.561 52.1365,101.561 55.5,100.5C 55.5271,98.8007 56.1938,97.4674 57.5,96.5C 62.0323,96.8182 66.3656,96.4849 70.5,95.5C 84.4085,95.4003 90.0752,88.4003 87.5,74.5C 88.1174,74.6107 88.6174,74.944 89,75.5C 88.6039,71.5433 90.1039,68.71 93.5,67C 92.3781,63.5915 92.2114,60.0915 93,56.5C 93.7096,55.0267 94.8762,54.3601 96.5,54.5C 96.3313,48.2756 93.998,43.109 89.5,39C 89.3775,35.8775 89.3775,32.7108 89.5,29.5C 88.132,28.4063 86.9653,28.7397 86,30.5C 83.3163,28.5348 81.1496,26.2015 79.5,23.5C 78.962,21.8828 78.6287,20.2161 78.5,18.5 Z"/></g>
<g><path style="opacity:1" fill="white" d="M 70.5,37.5 C 69.8091,35.9778 68.6424,34.9778 67,34.5C 64.2481,35.5863 61.7481,37.0863 59.5,39C 55.7559,39.9285 52.2559,39.4285 49,37.5C 48.8379,41.3783 50.5046,44.3783 54,46.5C 54.4828,47.448 54.6495,48.448 54.5,49.5C 53.209,49.2627 52.209,49.596 51.5,50.5C 50.4324,51.4345 49.099,51.7678 47.5,51.5C 46.5,51.5 45.5,51.5 44.5,51.5C 41.4271,50.2673 41.0938,48.7673 43.5,47C 39.9984,46.3439 39.9984,45.0105 43.5,43C 40.3654,39.3812 40.8654,36.5479 45,34.5C 47.3065,35.3903 48.4732,34.3903 48.5,31.5C 50.1172,32.038 51.7839,32.3713 53.5,32.5C 53.3505,33.552 53.5172,34.552 54,35.5C 55.0395,33.2537 56.2062,31.087 57.5,29C 55.4078,28.0475 55.0745,26.7141 56.5,25C 59.4245,24.0124 62.4245,23.3457 65.5,23C 64.3044,22.3457 64.3044,21.8457 65.5,21.5C 67.6869,23.8495 70.1869,25.8495 73,27.5C 73.4186,26.3279 74.0853,25.3279 75,24.5C 76.2418,26.5407 78.0751,27.7073 80.5,28C 77.9096,29.4451 75.243,30.6118 72.5,31.5C 72.7406,33.8984 72.0739,35.8984 70.5,37.5 Z"/></g>
<g><path style="opacity:1" fill="black" d="M 70.5,37.5 C 70.811,38.4778 71.4777,39.1445 72.5,39.5C 74.7534,38.7469 76.5867,37.4136 78,35.5C 78.7185,38.4071 78.2185,41.0738 76.5,43.5C 74.4565,45.208 72.7899,47.208 71.5,49.5C 65.8333,49.5 60.1667,49.5 54.5,49.5C 54.6495,48.448 54.4828,47.448 54,46.5C 50.5046,44.3783 48.8379,41.3783 49,37.5C 52.2559,39.4285 55.7559,39.9285 59.5,39C 61.7481,37.0863 64.2481,35.5863 67,34.5C 68.6424,34.9778 69.8091,35.9778 70.5,37.5 Z"/></g>
<g><path style="opacity:1" fill="white" d="M 85.5,67.5 C 83.1452,63.1452 79.8119,59.8119 75.5,57.5C 70.3595,56.5119 65.0262,56.1786 59.5,56.5C 48.8707,58.1205 41.8707,64.1205 38.5,74.5C 36.8868,74.9443 35.7202,75.9443 35,77.5C 34,76.8333 33,76.1667 32,75.5C 31.6039,73.0398 30.4372,71.0398 28.5,69.5C 30.0347,62.6885 31.8681,56.0218 34,49.5C 34.3333,49.1667 34.6667,48.8333 35,48.5C 36.7489,50.753 38.2489,53.0863 39.5,55.5C 36.6876,59.7234 38.0209,61.3901 43.5,60.5C 46.7522,59.5406 49.7522,58.0406 52.5,56C 58.3482,55.8272 64.0149,55.3272 69.5,54.5C 70.8333,54.5 72.1667,54.5 73.5,54.5C 73.7373,53.209 73.404,52.209 72.5,51.5C 72.1667,50.8333 71.8333,50.1667 71.5,49.5C 72.7899,47.208 74.4565,45.208 76.5,43.5C 77.5,43.5 78.5,43.5 79.5,43.5C 79.3367,41.1432 79.5034,38.8098 80,36.5C 81.8138,35.2404 83.6471,35.2404 85.5,36.5C 88.0752,41.6445 90.0752,46.9778 91.5,52.5C 90.0202,53.1131 88.6869,53.4464 87.5,53.5C 88.8333,54.8333 88.8333,56.1667 87.5,57.5C 88.1667,57.8333 88.8333,58.1667 89.5,58.5C 88.5934,61.4212 88.2601,64.4212 88.5,67.5C 87.5,67.5 86.5,67.5 85.5,67.5 Z"/></g>
<g><path style="opacity:1" fill="black" d="M 55.5,50.5 C 61.1523,51.0318 66.819,51.3651 72.5,51.5C 73.404,52.209 73.7373,53.209 73.5,54.5C 72.1667,54.5 70.8333,54.5 69.5,54.5C 64.8333,54.5 60.1667,54.5 55.5,54.5C 55.5,53.1667 55.5,51.8333 55.5,50.5 Z"/></g>
<g><path style="opacity:1" fill="black" d="M 51.5,50.5 C 52.8333,50.5 54.1667,50.5 55.5,50.5C 55.5,51.8333 55.5,53.1667 55.5,54.5C 60.1667,54.5 64.8333,54.5 69.5,54.5C 64.0149,55.3272 58.3482,55.8272 52.5,56C 49.7522,58.0406 46.7522,59.5406 43.5,60.5C 45.4197,58.5344 47.4197,56.5344 49.5,54.5C 48.3881,53.7348 47.7214,52.7348 47.5,51.5C 49.099,51.7678 50.4324,51.4345 51.5,50.5 Z"/></g>
<g><path style="opacity:1" fill="black" d="M 51.5,50.5 C 52.209,49.596 53.209,49.2627 54.5,49.5C 60.1667,49.5 65.8333,49.5 71.5,49.5C 71.8333,50.1667 72.1667,50.8333 72.5,51.5C 66.819,51.3651 61.1523,51.0318 55.5,50.5C 54.1667,50.5 52.8333,50.5 51.5,50.5 Z"/></g>
<g><path style="opacity:1" fill="white" d="M 70.5,16.5 C 73.2666,16.8583 75.9333,17.525 78.5,18.5C 78.6287,20.2161 78.962,21.8828 79.5,23.5C 73.2556,18.5003 66.5889,18.167 59.5,22.5C 56.6764,21.7546 54.6764,22.9212 53.5,26C 52.552,26.4828 51.552,26.6495 50.5,26.5C 50.6085,28.5138 49.9418,30.1805 48.5,31.5C 46.2362,32.2186 43.9029,32.552 41.5,32.5C 40.2191,37.0623 38.3858,41.3957 36,45.5C 34.9207,47.3937 33.5874,47.727 32,46.5C 29.542,50.6192 28.7086,54.9525 29.5,59.5C 28.0269,63.7084 26.6936,68.0417 25.5,72.5C 26.276,74.8829 27.6093,76.8829 29.5,78.5C 29.1667,79.8333 28.8333,81.1667 28.5,82.5C 32.4805,85.4935 34.8138,89.4935 35.5,94.5C 36.6888,95.4287 38.0222,95.762 39.5,95.5C 39.366,93.7085 39.6993,92.0418 40.5,90.5C 45.5392,93.988 51.2058,95.988 57.5,96.5C 56.1938,97.4674 55.5271,98.8007 55.5,100.5C 52.1365,101.561 48.8032,102.561 45.5,103.5C 44.1266,103.657 42.7932,103.49 41.5,103C 39.1349,99.343 36.1349,97.5097 32.5,97.5C 30.5639,93.1295 28.2306,88.9628 25.5,85C 21.5014,81.835 19.5014,77.6683 19.5,72.5C 20.5,72.5 21.5,72.5 22.5,72.5C 22.0951,67.473 21.4285,62.473 20.5,57.5C 20.316,54.2164 21.816,52.2164 25,51.5C 25.5182,48.9774 26.8515,46.9774 29,45.5C 29.4379,42.624 30.4379,39.9573 32,37.5C 39.0764,30.2597 46.9097,23.9263 55.5,18.5C 60.6511,17.8332 65.6511,17.1665 70.5,16.5 Z"/></g>
<g><path style="opacity:1" fill="black" d="M 44.5,51.5 C 45.5,51.5 46.5,51.5 47.5,51.5C 47.7214,52.7348 48.3881,53.7348 49.5,54.5C 47.4197,56.5344 45.4197,58.5344 43.5,60.5C 38.0209,61.3901 36.6876,59.7234 39.5,55.5C 41.3885,54.396 43.0552,53.0627 44.5,51.5 Z"/></g>
<g><path style="opacity:1" fill="black" d="M 59.5,56.5 C 65.0262,56.1786 70.3595,56.5119 75.5,57.5C 75.7214,58.7348 76.3881,59.7348 77.5,60.5C 77.1667,60.8333 76.8333,61.1667 76.5,61.5C 73.9639,61.8444 71.7972,62.8444 70,64.5C 69.51,63.2068 69.3433,61.8734 69.5,60.5C 65.8238,60.5342 64.6571,62.2009 66,65.5C 64.7025,64.2164 63.5358,64.3831 62.5,66C 63.1667,66.3333 63.8333,66.6667 64.5,67C 63.269,68.1827 63.269,69.3493 64.5,70.5C 64.8333,69.8333 65.1667,69.1667 65.5,68.5C 67.7579,73.2972 68.9245,78.2972 69,83.5C 68.1005,85.5161 66.7672,87.1828 65,88.5C 62.6421,86.9757 60.8088,84.9757 59.5,82.5C 60.0354,80.7295 60.8687,80.3961 62,81.5C 62.2703,80.0677 61.6036,79.0677 60,78.5C 58.9914,80.0249 58.4914,81.6916 58.5,83.5C 57.5,83.5 56.5,83.5 55.5,83.5C 54.3386,81.594 52.3386,80.094 49.5,79C 52.2234,76.833 51.8901,74.4997 48.5,72C 49.1667,70.6667 49.8333,69.3333 50.5,68C 49.8333,67.6667 49.1667,67.3333 48.5,67C 51.1667,66.6667 53.8333,66.3333 56.5,66C 56,65.5 55.5,65 55,64.5C 53.6124,65.5536 52.1124,65.7203 50.5,65C 53.4228,63.3678 56.4228,63.2012 59.5,64.5C 58.4372,66.366 59.1039,66.866 61.5,66C 60.1669,64.1598 60.3335,63.6598 62,64.5C 62.5,64 63,63.5 63.5,63C 59.5515,62.0008 58.2182,59.8341 59.5,56.5 Z"/></g>
<g><path style="opacity:1" fill="white" d="M 101.5,35.5 C 104.144,38.7734 106.311,42.4401 108,46.5C 110.937,57.0369 111.271,67.7036 109,78.5C 108.195,82.7764 106.362,86.443 103.5,89.5C 103.5,86.1667 103.5,82.8333 103.5,79.5C 107.084,74.1026 108.251,68.1026 107,61.5C 106.727,59.6711 105.893,58.1711 104.5,57C 105.5,56 106.5,55 107.5,54C 106.663,52.9887 106.33,51.8221 106.5,50.5C 105.5,50.5 104.5,50.5 103.5,50.5C 102.413,45.5667 101.747,40.5667 101.5,35.5 Z"/></g>
<g><path style="opacity:1" fill="white" d="M 17.5,58.5 C 17.347,64.8692 17.6803,71.2026 18.5,77.5C 17.2502,77.4226 16.4169,76.756 16,75.5C 14.5615,70.2375 14.2282,64.9042 15,59.5C 15.3333,60.5 15.6667,61.5 16,62.5C 16.21,60.9419 16.71,59.6085 17.5,58.5 Z"/></g>
<g><path style="opacity:1" fill="black" d="M 59.5,56.5 C 58.2182,59.8341 59.5515,62.0008 63.5,63C 63,63.5 62.5,64 62,64.5C 60.3335,63.6598 60.1669,64.1598 61.5,66C 59.1039,66.866 58.4372,66.366 59.5,64.5C 56.4228,63.2012 53.4228,63.3678 50.5,65C 52.1124,65.7203 53.6124,65.5536 55,64.5C 55.5,65 56,65.5 56.5,66C 53.8333,66.3333 51.1667,66.6667 48.5,67C 49.1667,67.3333 49.8333,67.6667 50.5,68C 49.8333,69.3333 49.1667,70.6667 48.5,72C 51.8901,74.4997 52.2234,76.833 49.5,79C 52.3386,80.094 54.3386,81.594 55.5,83.5C 56.0076,85.2327 56.841,85.566 58,84.5C 58.6749,89.7482 56.8416,90.7482 52.5,87.5C 51.8182,88.2427 51.1515,88.9094 50.5,89.5C 47.7465,88.2597 45.2465,86.593 43,84.5C 42.4177,87.6677 41.4177,88.001 40,85.5C 39.6174,86.056 39.1174,86.3893 38.5,86.5C 37.2737,82.633 37.2737,78.633 38.5,74.5C 41.8707,64.1205 48.8707,58.1205 59.5,56.5 Z"/></g>
<g><path style="opacity:1" fill="white" d="M 48.5,31.5 C 48.4732,34.3903 47.3065,35.3903 45,34.5C 40.8654,36.5479 40.3654,39.3812 43.5,43C 39.9984,45.0105 39.9984,46.3439 43.5,47C 41.0938,48.7673 41.4271,50.2673 44.5,51.5C 43.0552,53.0627 41.3885,54.396 39.5,55.5C 38.2489,53.0863 36.7489,50.753 35,48.5C 34.6667,48.8333 34.3333,49.1667 34,49.5C 31.8681,56.0218 30.0347,62.6885 28.5,69.5C 30.4372,71.0398 31.6039,73.0398 32,75.5C 33,76.1667 34,76.8333 35,77.5C 35.7202,75.9443 36.8868,74.9443 38.5,74.5C 37.2737,78.633 37.2737,82.633 38.5,86.5C 39.1667,87.8333 39.8333,89.1667 40.5,90.5C 39.6993,92.0418 39.366,93.7085 39.5,95.5C 38.0222,95.762 36.6888,95.4287 35.5,94.5C 34.8138,89.4935 32.4805,85.4935 28.5,82.5C 28.8333,81.1667 29.1667,79.8333 29.5,78.5C 27.6093,76.8829 26.276,74.8829 25.5,72.5C 26.6936,68.0417 28.0269,63.7084 29.5,59.5C 28.7086,54.9525 29.542,50.6192 32,46.5C 33.5874,47.727 34.9207,47.3937 36,45.5C 38.3858,41.3957 40.2191,37.0623 41.5,32.5C 43.9029,32.552 46.2362,32.2186 48.5,31.5 Z"/></g>
<g><path style="opacity:1" fill="white" d="M 81.5,19.5 C 89.6643,23.0014 96.331,28.3347 101.5,35.5C 101.747,40.5667 102.413,45.5667 103.5,50.5C 104.5,50.5 105.5,50.5 106.5,50.5C 106.33,51.8221 106.663,52.9887 107.5,54C 106.5,55 105.5,56 104.5,57C 105.893,58.1711 106.727,59.6711 107,61.5C 108.251,68.1026 107.084,74.1026 103.5,79.5C 101.31,82.0546 99.8097,85.0546 99,88.5C 98.3333,89.8333 97.6667,89.8333 97,88.5C 96.5172,89.448 96.3505,90.448 96.5,91.5C 94.8333,91.5 93.1667,91.5 91.5,91.5C 92.6114,90.3403 93.6114,89.007 94.5,87.5C 95.2446,83.6976 96.4113,80.0309 98,76.5C 98.49,77.7932 98.6567,79.1266 98.5,80.5C 99.5,80.5 100.5,80.5 101.5,80.5C 101.284,78.3193 102.117,76.6526 104,75.5C 104.835,69.017 104.168,62.6837 102,56.5C 101.13,57.1079 100.63,57.9412 100.5,59C 102.326,63.8971 100.826,65.7304 96,64.5C 95.304,61.5219 94.804,58.5219 94.5,55.5C 96.1238,55.3601 97.2904,56.0267 98,57.5C 98.3095,56.2341 98.8095,55.0674 99.5,54C 96.1413,50.2208 95.808,46.2208 98.5,42C 97.6364,40.3035 96.3031,39.1368 94.5,38.5C 93.8441,34.8583 92.5108,31.525 90.5,28.5C 89.675,27.6143 88.675,27.281 87.5,27.5C 87.5,26.1667 87.5,24.8333 87.5,23.5C 84.4779,23.6581 82.4779,22.3248 81.5,19.5 Z"/></g>
<g><path style="opacity:1" fill="black" d="M 75.5,57.5 C 79.8119,59.8119 83.1452,63.1452 85.5,67.5C 86.9331,69.5582 87.5997,71.8915 87.5,74.5C 90.0752,88.4003 84.4085,95.4003 70.5,95.5C 65.8215,95.6658 61.1548,95.4992 56.5,95C 58.3008,94.6827 58.6341,94.016 57.5,93C 55.2867,91.3838 52.9534,90.2172 50.5,89.5C 51.1515,88.9094 51.8182,88.2427 52.5,87.5C 56.8416,90.7482 58.6749,89.7482 58,84.5C 56.841,85.566 56.0076,85.2327 55.5,83.5C 56.5,83.5 57.5,83.5 58.5,83.5C 58.4914,81.6916 58.9914,80.0249 60,78.5C 61.6036,79.0677 62.2703,80.0677 62,81.5C 60.8687,80.3961 60.0354,80.7295 59.5,82.5C 60.8088,84.9757 62.6421,86.9757 65,88.5C 66.7672,87.1828 68.1005,85.5161 69,83.5C 68.9245,78.2972 67.7579,73.2972 65.5,68.5C 65.1667,69.1667 64.8333,69.8333 64.5,70.5C 63.269,69.3493 63.269,68.1827 64.5,67C 63.8333,66.6667 63.1667,66.3333 62.5,66C 63.5358,64.3831 64.7025,64.2164 66,65.5C 64.6571,62.2009 65.8238,60.5342 69.5,60.5C 69.3433,61.8734 69.51,63.2068 70,64.5C 71.7972,62.8444 73.9639,61.8444 76.5,61.5C 76.8333,61.1667 77.1667,60.8333 77.5,60.5C 76.3881,59.7348 75.7214,58.7348 75.5,57.5 Z"/></g>
<g><path style="opacity:1" fill="black" d="M 50.5,89.5 C 52.9534,90.2172 55.2867,91.3838 57.5,93C 58.6341,94.016 58.3008,94.6827 56.5,95C 61.1548,95.4992 65.8215,95.6658 70.5,95.5C 66.3656,96.4849 62.0323,96.8182 57.5,96.5C 51.2058,95.988 45.5392,93.988 40.5,90.5C 39.8333,89.1667 39.1667,87.8333 38.5,86.5C 39.1174,86.3893 39.6174,86.056 40,85.5C 41.4177,88.001 42.4177,87.6677 43,84.5C 45.2465,86.593 47.7465,88.2597 50.5,89.5 Z"/></g>
<g><path style="opacity:1" fill="white" d="M 103.5,79.5 C 103.5,82.8333 103.5,86.1667 103.5,89.5C 101.898,93.0954 99.8977,96.4288 97.5,99.5C 97.5,100.167 97.1667,100.5 96.5,100.5C 92.7375,102.413 89.0709,104.579 85.5,107C 82.5945,108.286 79.5945,109.286 76.5,110C 67.5,110.667 58.5,110.667 49.5,110C 46.1667,109 42.8333,108 39.5,107C 38.944,106.617 38.6107,106.117 38.5,105.5C 43.8351,107.208 49.3351,108.542 55,109.5C 56.5,109.167 58,108.833 59.5,108.5C 58.2132,105.578 59.2132,103.745 62.5,103C 64.556,102.689 66.556,102.189 68.5,101.5C 70.8676,103.223 73.5342,103.89 76.5,103.5C 76.33,102.178 76.6634,101.011 77.5,100C 81.1083,99.9741 84.4417,99.1407 87.5,97.5C 88.4584,95.216 89.7917,93.216 91.5,91.5C 93.1667,91.5 94.8333,91.5 96.5,91.5C 96.3505,90.448 96.5172,89.448 97,88.5C 97.6667,89.8333 98.3333,89.8333 99,88.5C 99.8097,85.0546 101.31,82.0546 103.5,79.5 Z"/></g>
<g><path style="opacity:1" fill="white" d="M 22.5,86.5 C 24.8035,89.3185 26.9701,92.3185 29,95.5C 29.8159,96.8228 30.9826,97.4894 32.5,97.5C 36.1349,97.5097 39.1349,99.343 41.5,103C 42.7932,103.49 44.1266,103.657 45.5,103.5C 48.8349,106.662 51.5016,106.162 53.5,102C 57.7727,100.97 62.106,100.303 66.5,100C 68.2212,98.5629 69.7212,99.0629 71,101.5C 73.6725,99.8244 76.3392,98.1577 79,96.5C 80.7261,97.5762 82.5594,97.7429 84.5,97C 86.5404,94.6955 88.8737,92.8622 91.5,91.5C 89.7917,93.216 88.4584,95.216 87.5,97.5C 84.4417,99.1407 81.1083,99.9741 77.5,100C 76.6634,101.011 76.33,102.178 76.5,103.5C 73.5342,103.89 70.8676,103.223 68.5,101.5C 66.556,102.189 64.556,102.689 62.5,103C 59.2132,103.745 58.2132,105.578 59.5,108.5C 58,108.833 56.5,109.167 55,109.5C 49.3351,108.542 43.8351,107.208 38.5,105.5C 30.2812,101.613 24.9478,95.2798 22.5,86.5 Z"/></g>
</svg>
