<?xml version="1.0" encoding="UTF-8"?>
<!DOCTYPE svg PUBLIC "-//W3C//DTD SVG 1.1//EN" "http://www.w3.org/Graphics/SVG/1.1/DTD/svg11.dtd">
<svg xmlns="http://www.w3.org/2000/svg" version="1.1" width="64px" height="64px" style="shape-rendering:geometricPrecision; text-rendering:geometricPrecision; image-rendering:optimizeQuality; fill-rule:evenodd; clip-rule:evenodd" xmlns:xlink="http://www.w3.org/1999/xlink">
<g><path style="opacity:0.216" fill="" d="M 63.5,18.5 C 63.5,21.5 63.5,24.5 63.5,27.5C 62.3032,31.3655 60.3032,34.8655 57.5,38C 55.2824,40.3335 52.7824,40.8335 50,39.5C 47.6886,41.1101 45.1886,42.4435 42.5,43.5C 42.4305,51.5676 38.4305,56.2343 30.5,57.5C 22.1133,56.1051 18.1133,51.1051 18.5,42.5C 17.2798,41.2889 16.1131,41.2889 15,42.5C 14,41.5 13,40.5 12,39.5C 10.1862,40.7596 8.35289,40.7596 6.5,39.5C 3.68741,37.1762 1.35408,34.5095 -0.5,31.5C -0.5,26.1667 -0.5,20.8333 -0.5,15.5C 16.3599,5.73789 34.3599,4.23789 53.5,11C 55.7173,12.2754 58.0506,13.2754 60.5,14C 61.3994,15.6516 62.3994,17.1516 63.5,18.5 Z"/></g>
<g><path style="opacity:1" fill="white" d="M 39.5,14.5 C 39.4876,18.4503 40.8209,21.7836 43.5,24.5C 43.5,24.8333 43.5,25.1667 43.5,25.5C 42.8333,26.1667 42.1667,26.8333 41.5,27.5C 40.1516,28.6006 38.6516,29.6006 37,30.5C 36.2195,31.9437 36.3861,33.277 37.5,34.5C 41.3801,34.29 43.0468,32.29 42.5,28.5C 43.1667,29.1667 43.8333,29.8333 44.5,30.5C 46.2272,36.0548 44.2272,39.0548 38.5,39.5C 36.7085,39.634 35.0418,39.3007 33.5,38.5C 32.6993,36.9582 32.366,35.2915 32.5,33.5C 31.209,33.2627 30.209,33.596 29.5,34.5C 27.3888,35.7416 25.3888,35.7416 23.5,34.5C 25.3442,33.7961 25.8442,32.4628 25,30.5C 23.2196,29.3606 21.3863,28.3606 19.5,27.5C 19.1667,26.8333 18.8333,26.1667 18.5,25.5C 18.5,25.1667 18.5,24.8333 18.5,24.5C 20.8966,21.691 22.2299,18.3576 22.5,14.5C 28.1328,9.26816 33.7995,9.26816 39.5,14.5 Z"/></g>
<g><path style="opacity:1" fill="white" d="M 51.5,15.5 C 51.5,17.8333 51.5,20.1667 51.5,22.5C 49.2646,22.2053 47.2646,22.5386 45.5,23.5C 45.1667,23.5 44.8333,23.5 44.5,23.5C 42.1289,21.0034 41.1289,18.0034 41.5,14.5C 41.62,13.4138 42.2867,12.7472 43.5,12.5C 46.1897,13.5067 48.8563,14.5067 51.5,15.5 Z"/></g>
<g><path style="opacity:1" fill="white" d="M 20.5,15.5 C 20.4607,18.5351 19.4607,21.2018 17.5,23.5C 14.423,22.3415 11.423,22.6748 8.5,24.5C 7.95401,25.7722 7.62068,27.1055 7.5,28.5C 8.37608,30.8235 8.87608,33.1568 9,35.5C 4.16993,31.1821 2.16993,25.8488 3,19.5C 7.40706,16.1327 12.4071,13.7993 18,12.5C 19.7491,12.7483 20.5824,13.7483 20.5,15.5 Z"/></g>
<g><path style="opacity:1" fill="white" d="M 51.5,15.5 C 55.8238,16.1587 58.8238,18.492 60.5,22.5C 58.8606,27.1122 56.6939,31.4455 54,35.5C 53.1072,36.7112 52.2739,36.7112 51.5,35.5C 57.065,27.3322 55.065,23.3322 45.5,23.5C 47.2646,22.5386 49.2646,22.2053 51.5,22.5C 51.5,20.1667 51.5,17.8333 51.5,15.5 Z"/></g>
<g><path style="opacity:1" fill="black" d="M 39.5,14.5 C 40.1667,14.5 40.8333,14.5 41.5,14.5C 41.1289,18.0034 42.1289,21.0034 44.5,23.5C 43.8333,23.5 43.5,23.8333 43.5,24.5C 40.8209,21.7836 39.4876,18.4503 39.5,14.5 Z"/></g>
<g><path style="opacity:1" fill="black" d="M 22.5,14.5 C 22.2299,18.3576 20.8966,21.691 18.5,24.5C 18.5,23.8333 18.1667,23.5 17.5,23.5C 19.4607,21.2018 20.4607,18.5351 20.5,15.5C 21.1667,15.1667 21.8333,14.8333 22.5,14.5 Z"/></g>
<g><path style="opacity:0.881" fill="black" d="M 19.5,27.5 C 21.3863,28.3606 23.2196,29.3606 25,30.5C 25.8442,32.4628 25.3442,33.7961 23.5,34.5C 20.0133,33.6121 18.6799,31.2788 19.5,27.5 Z"/></g>
<g><path style="opacity:0.867" fill="black" d="M 41.5,27.5 C 42.1667,27.5 42.5,27.8333 42.5,28.5C 43.0468,32.29 41.3801,34.29 37.5,34.5C 36.3861,33.277 36.2195,31.9437 37,30.5C 38.6516,29.6006 40.1516,28.6006 41.5,27.5 Z"/></g>
<g><path style="opacity:0.863" fill="white" d="M 43.5,25.5 C 44.4511,26.9187 44.7845,28.5853 44.5,30.5C 43.8333,29.8333 43.1667,29.1667 42.5,28.5C 42.5,27.8333 42.1667,27.5 41.5,27.5C 42.1667,26.8333 42.8333,26.1667 43.5,25.5 Z"/></g>
<g><path style="opacity:1" fill="white" d="M 18.5,25.5 C 18.8333,26.1667 19.1667,26.8333 19.5,27.5C 18.6799,31.2788 20.0133,33.6121 23.5,34.5C 25.3888,35.7416 27.3888,35.7416 29.5,34.5C 28.1352,40.896 28.1352,42.5626 29.5,39.5C 30.5,39.5 31.5,39.5 32.5,39.5C 33.0447,43.1716 33.3781,42.8383 33.5,38.5C 35.0418,39.3007 36.7085,39.634 38.5,39.5C 37.4183,40.5938 36.7517,41.9271 36.5,43.5C 38.3743,47.7728 37.7076,48.7728 34.5,46.5C 34.1667,46.8333 33.8333,47.1667 33.5,47.5C 35.289,48.623 35.6224,49.9564 34.5,51.5C 33.8076,50.9747 33.3076,50.3081 33,49.5C 31.6667,54.8333 30.3333,54.8333 29,49.5C 28.6924,50.3081 28.1924,50.9747 27.5,51.5C 26.5,50 25.5,48.5 24.5,47C 25.4589,44.8801 25.6256,42.7135 25,40.5C 22.3333,39.1667 19.6667,37.8333 17,36.5C 16.6496,32.6186 17.1496,28.9519 18.5,25.5 Z"/></g>
<g><path style="opacity:0.918" fill="black" d="M 33.5,38.5 C 33.3781,42.8383 33.0447,43.1716 32.5,39.5C 31.5,39.5 30.5,39.5 29.5,39.5C 28.1352,42.5626 28.1352,40.896 29.5,34.5C 30.209,33.596 31.209,33.2627 32.5,33.5C 32.366,35.2915 32.6993,36.9582 33.5,38.5 Z"/></g>
</svg>
